<svg width="60" height="48" viewBox="0 0 60 48" fill="none" xmlns="http://www.w3.org/2000/svg">
<g clip-path="url(#clip0_6_114)">
<ellipse cx="30" cy="42.5" rx="30" ry="5.5" fill="#FBCE0E"/>
<path d="M25.851 11.9298L25.4729 18.9981C25.4351 19.7049 25.5582 19.8887 25.9582 19.8658C26.6673 19.8594 28.1772 18.9655 31.137 19.1238C34.892 19.3247 40.9342 23.1478 40.5703 29.951C40.1378 38.0353 34.2288 41.6622 28.0441 41.3313C24.2891 41.1305 23.5206 39.7603 22.2395 39.6918C21.2234 39.6374 20.0852 41.0385 16.772 40.8613C15.7117 40.8046 14.9985 40.0576 15.0529 39.0415C15.1332 37.5395 16.589 31.858 16.7757 28.3681L17.1585 21.2115C17.409 16.5288 14.7898 14.971 14.9033 12.8505C14.9836 11.3485 15.6028 10.5399 18.4821 9.71924L19.9217 9.30891C21.4055 8.90095 22.3451 8.72969 23.5378 8.79349C24.9515 8.86911 25.9597 9.89771 25.851 11.9298ZM28.8757 23.3002C26.711 23.1845 25.083 26.2872 24.8656 30.3514L24.8018 31.5442C24.6293 34.7691 25.4365 37.0717 27.6895 37.1922C30.4726 37.3411 31.7654 34.7077 32.0159 30.025C32.1907 26.756 31.4379 23.4373 28.8757 23.3002ZM43.9697 39.0116C44.0329 37.8293 44.365 37.0138 44.9658 36.5653C45.5666 36.1167 46.2664 35.9138 47.0653 35.9566C47.8961 36.001 48.5863 36.2783 49.1358 36.7883C49.7173 37.3001 49.9764 38.1472 49.9132 39.3295C49.8517 40.4798 49.5037 41.2944 48.8692 41.7732C48.2666 42.2537 47.55 42.4717 46.7192 42.4273C45.9203 42.3846 45.247 42.0922 44.6991 41.5502C44.1513 41.0081 43.9082 40.1619 43.9697 39.0116Z" fill="#E9571E"/>
</g>
<defs>
<clipPath id="clip0_6_114">
<rect width="60" height="48" fill="white"/>
</clipPath>
</defs>
</svg>
